<svg width="880" height="880" viewBox="0 0 880 880" fill="none" xmlns="http://www.w3.org/2000/svg">
<path d="M693.079 612.42L676.269 612.94L657.109 594.58L633.989 594.64L633.499 612.69L620.059 612.74L620.399 556.88L667.969 556.77C675.459 556.75 682.709 559.12 688.099 563.69C695.359 570.86 695.399 581.15 687.869 588.04C684.179 591.41 678.959 592.94 673.789 593.76L693.079 612.43V612.42ZM678.769 576.49C678.999 571 673.709 567.07 668.809 567.02L633.919 566.66L634.059 584.81L669.569 584.71C673.699 584.7 678.589 580.74 678.769 576.49Z" fill="white"/>
<path d="M587.938 613.339L568.438 594.359L545.268 594.459L545.018 612.769L531.898 612.749L532.058 556.859L578.588 556.699C584.218 556.679 590.098 558.629 595.218 560.609C604.058 566.399 607.098 577.149 600.378 585.609C596.708 590.229 590.778 592.469 584.998 593.699L603.518 612.089L587.938 613.329V613.339ZM577.658 584.779C581.518 584.819 585.698 582.749 587.968 580.099C589.848 577.899 589.628 572.959 587.948 571.019C581.408 563.489 555.858 567.209 545.308 566.709L545.108 584.449L577.658 584.789V584.779Z" fill="white"/>
<path d="M345.171 612.59L333.301 612.72L283.671 573.39L283.391 612.94L270.031 612.82L270.101 557.09L282.891 556.92L331.481 595.37L331.681 557.06L345.231 557.04L345.171 612.59Z" fill="white"/>
<path d="M509.829 588.36L465.389 588.58L465.109 603.08L515.549 603.49C516.249 606.29 516.369 609.37 515.969 612.93H451.949L451.999 556.93L515.699 556.95L515.659 566.58L465.879 566.69V579.01L509.569 579.04L509.819 588.35L509.829 588.36Z" fill="white"/>
<path d="M141.55 595.021L108.57 594.911L108.31 612.761H94.5898L94.7498 556.991L144.04 556.801C150.04 556.781 155.86 558.581 161.03 561.041C166.34 565.381 169.71 570.661 168.97 577.441C167.46 591.371 155.02 595.071 141.56 595.031L141.55 595.021ZM153.89 573.821C152.64 569.401 147.2 566.731 143.06 566.731H108.52L108.45 585.231L144 585.161C149.65 585.151 155.64 579.961 153.9 573.821H153.89Z" fill="white"/>
<path d="M768.212 601.469L724.382 601.34L716.292 612.84L700.762 612.58L737.432 557.049L754.742 557.02L791.532 612.38L775.642 613.07L768.212 601.46V601.469ZM762.302 591.52L746.352 567.9L730.552 591.599L762.312 591.52H762.302Z" fill="white"/>
<path d="M235.7 601.42L192.08 601.28L184.31 612.82L167.77 612.63L205.66 556.82L222.43 556.9L258.91 612.45L243.59 613.06L235.71 601.42H235.7ZM229.71 591.27L213.95 567.86L197.71 591.64L229.71 591.28V591.27Z" fill="white"/>
<path d="M425.159 557.211L440.809 557.281L405.959 612.851L391.999 612.971L356.949 557.361L372.099 556.891L398.989 599.301L425.159 557.211Z" fill="white"/>
<path d="M315.039 504.919L315.069 354.719L430.859 354.399L473.879 302.079L353.009 301.849L352.979 341.689L315.099 341.959L315.299 266.959L534.039 266.859C524.279 281.409 513.499 293.879 502.659 307.429L473.709 343.629L439.529 385.809L352.569 385.889L352.979 489.019L315.049 504.929L315.039 504.919Z" fill="white"/>
<path d="M400.679 439.111L385.619 456.401L385.359 406.131L426.019 406.541L400.679 439.111Z" fill="white"/>
<path d="M557 266L394 471.501L480.5 438.501L559.581 340.001V268.5L557 266Z" fill="url(#paint0_linear_1847_221)"/>
<path d="M557 266L394.5 471L401 469L559.5 268.5L557 266Z" fill="url(#paint1_linear_1847_221)"/>
<defs>
<linearGradient id="paint0_linear_1847_221" x1="560" y1="266" x2="434.5" y2="452.5" gradientUnits="userSpaceOnUse">
<stop stop-color="#4A71FD"/>
<stop offset="1" stop-color="#132389"/>
</linearGradient>
<linearGradient id="paint1_linear_1847_221" x1="552" y1="264" x2="405" y2="469" gradientUnits="userSpaceOnUse">
<stop stop-color="#B5D8FE"/>
<stop offset="1" stop-color="#132EBE"/>
</linearGradient>
</defs>
</svg>
